<svg xmlns="http://www.w3.org/2000/svg" width="53.154" height="53.173" viewBox="0 0 53.154 53.173"><g transform="translate(0)"><path d="M53.154,27.043a12.356,12.356,0,0,1-2.476,6.952,34.269,34.269,0,0,1-6.634,7.284c-.56.447-.556.733-.051,1.232,2.782,2.744,5.532,5.521,8.293,8.287.176.177.361.346.52.538a1.029,1.029,0,0,1,.007,1.5.994.994,0,0,1-1.49.01c-.624-.547-1.2-1.154-1.785-1.741Q36.278,37.842,23.019,24.582,11.792,13.349.573,2.107C.144,1.677-.225,1.2.164.571A.929.929,0,0,1,1.575.188a4.643,4.643,0,0,1,.756.643c3.015,3.02,6.04,6.029,9.023,9.08a1.152,1.152,0,0,0,1.675.211,27.205,27.205,0,0,1,16.908-3.23A27.648,27.648,0,0,1,47.4,16.262,55.186,55.186,0,0,1,51.9,22.315a8.785,8.785,0,0,1,1.259,4.728M26.447,8.84a25.311,25.311,0,0,0-11.914,2.867c-.643.331-.758.586-.195,1.13,1.513,1.464,3.012,2.945,4.457,4.475.546.578.9.613,1.58.161a10.955,10.955,0,0,1,16.278,4.673,10.758,10.758,0,0,1-1.015,10.687.984.984,0,0,0,.182,1.518c1.845,1.758,3.646,3.562,5.427,5.384.48.491.807.479,1.308.049a35.186,35.186,0,0,0,7.035-8.034,7.966,7.966,0,0,0,.234-8.725,29.367,29.367,0,0,0-2.585-3.66C41.908,12.706,35.09,8.95,26.447,8.84M21.256,19.577c.053.138.059.2.094.239q5.892,5.918,11.784,11.834c.379.381.589.228.83-.151a8.557,8.557,0,0,0,.531-8.92A8.812,8.812,0,0,0,21.78,19.147a5.05,5.05,0,0,0-.525.43" fill="#bbb"/><path d="M66.21,124.143a7.859,7.859,0,0,1-.978-.749q-7.982-7.947-15.944-15.915-5.322-5.317-10.644-10.634c-.215-.215-.555-.426-.59-.674-.063-.444-.1-1.091.155-1.325s.885-.114,1.335-.045c.2.031.373.311.549.487q13.321,13.292,26.638,26.586a3.688,3.688,0,0,1,.6.685c.4.672-.1,1.567-1.119,1.584" transform="translate(-31.685 -78.952)" fill="#bbb"/><path d="M37.173,150.065c-.223.373-.336.821-.589.923a1.678,1.678,0,0,1-1.163-.049,3.179,3.179,0,0,1-.855-.771q-9.441-9.419-18.88-18.84c-1.2-1.193-2.409-2.368-3.6-3.567a2.7,2.7,0,0,1-.741-.977,1.281,1.281,0,0,1,.163-1.1,1.662,1.662,0,0,1,1.181-.207c.255.031.495.33.708.543q11.535,11.5,23.056,23.02a7.364,7.364,0,0,1,.719,1.028" transform="translate(-9.415 -104.582)" fill="#bbb"/><path d="M16.063,187.43a7.742,7.742,0,0,1-1.091-.75q-6.06-6.035-12.093-12.1c-.69-.692-.794-1.289-.363-1.743.461-.486,1.269-.4,1.918.25q4.586,4.577,9.159,9.167c1.017,1.019,2.073,2,3.024,3.08a1.8,1.8,0,0,1,.28,1.323c-.042.273-.5.483-.833.77" transform="translate(-1.882 -143.828)" fill="#bbb"/></g></svg>