<svg xmlns="http://www.w3.org/2000/svg" width="23.522" height="14.698" viewBox="0 0 23.522 14.698">
  <g id="BEHANCE_BLACK" transform="translate(-78.213 -75.316)">
    <path id="Trazado_21" data-name="Trazado 21" d="M90.054,86.226a3.328,3.328,0,0,1-1.4,2.815,4.779,4.779,0,0,1-1.512.725,6.572,6.572,0,0,1-1.832.248h-7.1v-14.7H86.08a2.9,2.9,0,0,1,1.387.331,3.47,3.47,0,0,1,1.056.859,3.949,3.949,0,0,1,.673,1.2,4.031,4.031,0,0,1-.3,3.374,3.28,3.28,0,0,1-1.573,1.4,3.778,3.778,0,0,1,2,1.335A3.861,3.861,0,0,1,90.054,86.226ZM81.07,77.759v3.706h3.809a1.693,1.693,0,0,0,1.231-.5,1.821,1.821,0,0,0,.508-1.366,1.885,1.885,0,0,0-.466-1.345,1.511,1.511,0,0,0-1.149-.5Zm6.107,7.929a2.148,2.148,0,0,0-.135-.756,2.111,2.111,0,0,0-.362-.631,1.691,1.691,0,0,0-.538-.425,1.507,1.507,0,0,0-.683-.155H81.07v3.871h4.243a1.864,1.864,0,0,0,.735-.145,1.754,1.754,0,0,0,.59-.4,1.924,1.924,0,0,0,.393-.61A1.946,1.946,0,0,0,87.177,85.688Z" transform="translate(0)" fill="#fff"/>
    <path id="Trazado_22" data-name="Trazado 22" d="M99.692,91.065a5.844,5.844,0,0,1-2.287-.431,5.157,5.157,0,0,1-2.859-2.9,5.548,5.548,0,0,1-.391-2.066,5.839,5.839,0,0,1,.382-2.116A5.144,5.144,0,0,1,97.4,80.614a5.848,5.848,0,0,1,2.317-.441,5.7,5.7,0,0,1,2.3.441,5.438,5.438,0,0,1,3.169,5.456,2.07,2.07,0,0,1-.05.4H97a3.115,3.115,0,0,0,.3,1.1,2.7,2.7,0,0,0,1.484,1.344,2.827,2.827,0,0,0,1,.18,3.094,3.094,0,0,0,1.514-.391,2.069,2.069,0,0,0,.973-1.033l2.307.642a4.683,4.683,0,0,1-1.856,1.975A5.746,5.746,0,0,1,99.692,91.065Zm2.729-6.339a2.8,2.8,0,0,0-.873-1.9,2.741,2.741,0,0,0-3.721.01,2.756,2.756,0,0,0-.592.822,2.9,2.9,0,0,0-.27,1.063Z" transform="translate(-3.45 -1.051)" fill="#fff"/>
    <path id="Trazado_23" data-name="Trazado 23" d="M96.708,76.207h7.033v1.745H96.708Z" transform="translate(-4.002 -0.193)" fill="#fff"/>
  </g>
</svg>
