<svg xmlns="http://www.w3.org/2000/svg" width="22.095" height="21.635" viewBox="0 0 22.095 21.635">
  <g id="GITHUB_BLACK" transform="translate(-334.957 -132.036)">
    <g id="Grupo_2" data-name="Grupo 2">
      <path id="Trazado_30" data-name="Trazado 30" d="M346,132.036a11.1,11.1,0,0,0-3.49,21.616c.553.1.754-.241.754-.535,0-.264-.009-.961-.015-1.886-3.072.67-3.722-1.488-3.722-1.488a2.927,2.927,0,0,0-1.226-1.622c-1-.688.075-.674.075-.674a2.319,2.319,0,0,1,1.691,1.143,2.348,2.348,0,0,0,3.217.921,2.369,2.369,0,0,1,.7-1.483c-2.452-.28-5.032-1.231-5.032-5.481a4.3,4.3,0,0,1,1.138-2.977,4,4,0,0,1,.108-2.935s.928-.3,3.038,1.137a10.429,10.429,0,0,1,5.532,0c2.109-1.434,3.035-1.136,3.035-1.136a4,4,0,0,1,.111,2.934,4.294,4.294,0,0,1,1.135,2.978c0,4.26-2.583,5.2-5.043,5.472a2.657,2.657,0,0,1,.749,2.054c0,1.483-.013,2.679-.013,3.042,0,.3.2.642.759.533a11.1,11.1,0,0,0-3.5-21.614Z" fill="#fff"/>
    </g>
  </g>
</svg>
