<svg xmlns="http://www.w3.org/2000/svg" width="15.681" height="15.749" viewBox="0 0 15.681 15.749">
  <path id="Trazado_50" data-name="Trazado 50" d="M175.777,43.906v3.482q0,3.482,0,6.964c0,.552-.156.82-.555.956a.832.832,0,0,1-.713-.065.819.819,0,0,1-.379-.594,2.2,2.2,0,0,1-.015-.332v-.068q0-3.585,0-7.17V45.713c-.064.056-.116.1-.163.148l-4.791,4.773-1.892,1.885-5.589,5.568-.008.008a2.1,2.1,0,0,1-.374.319.705.705,0,0,1-.379.114.77.77,0,0,1-.543-.249.74.74,0,0,1-.172-.952,2.433,2.433,0,0,1,.365-.434l8.645-8.648,3.534-3.534c.054-.053.1-.108.174-.182l.024-.025H172.6c-.347,0-.675,0-1,0l-7.285-.044h-.174a.834.834,0,1,1-.125-1.662,5.264,5.264,0,0,1,.72-.006h.037c.1,0,.212.007.317.007l9.258.019h.345C175.5,42.817,175.777,43.092,175.777,43.906Z" transform="translate(-160.096 -42.778)" fill="#fff"/>
</svg>
