<svg xmlns="http://www.w3.org/2000/svg" width="14.48" height="14.543" viewBox="0 0 14.48 14.543">
  <path id="go-to-section-icon-green" d="M174.576,43.82v3.215q0,3.215,0,6.43c0,.51-.144.757-.513.883a.768.768,0,0,1-.658-.06.756.756,0,0,1-.35-.548,2.027,2.027,0,0,1-.014-.307V53.37q0-3.31,0-6.62V45.488c-.059.052-.107.093-.15.137l-4.424,4.408-1.747,1.741-5.161,5.142-.007.007a1.939,1.939,0,0,1-.346.294.651.651,0,0,1-.35.105.711.711,0,0,1-.5-.23.683.683,0,0,1-.159-.879,2.248,2.248,0,0,1,.337-.4l7.983-7.986,3.263-3.263c.05-.049.1-.1.161-.168l.022-.023h-.322c-.321,0-.624,0-.924,0l-6.727-.041h-.161a.77.77,0,1,1-.115-1.535,4.861,4.861,0,0,1,.665-.006h.034c.1,0,.2.007.293.007l8.549.017h.318C174.322,42.814,174.576,43.068,174.576,43.82Z" transform="translate(-160.096 -42.778)" fill="#dcff00"/>
</svg>
