<svg xmlns="http://www.w3.org/2000/svg" width="9.816" height="9.858" viewBox="0 0 9.816 9.858">
  <path id="go-to-section-icon" d="M169.912,43.484v2.18q0,2.179,0,4.359c0,.346-.1.513-.348.6a.521.521,0,0,1-.446-.041.513.513,0,0,1-.237-.372,1.376,1.376,0,0,1-.009-.208v-.043q0-2.244,0-4.488v-.855c-.04.035-.073.063-.1.093l-3,2.988-1.184,1.18-3.5,3.485,0,0a1.314,1.314,0,0,1-.234.2.442.442,0,0,1-.237.071.482.482,0,0,1-.34-.156.463.463,0,0,1-.108-.6,1.524,1.524,0,0,1,.229-.272L165.8,46.2l2.212-2.212c.034-.033.065-.067.109-.114l.015-.016h-.845l-4.56-.028h-.109a.522.522,0,1,1-.078-1.041,3.3,3.3,0,0,1,.451,0h.023c.065,0,.133,0,.2,0l5.795.012h.216C169.74,42.8,169.912,42.975,169.912,43.484Z" transform="translate(-160.096 -42.778)" fill="#fff"/>
</svg>
