<svg xmlns="http://www.w3.org/2000/svg" xmlns:xlink="http://www.w3.org/1999/xlink" width="29.091" height="29.07" viewBox="0 0 29.091 29.07">
  <defs>
    <clipPath id="clip-path">
      <rect id="Rectángulo_587" data-name="Rectángulo 587" width="29.091" height="29.07" fill="#fff"/>
    </clipPath>
  </defs>
  <g id="Grupo_392" data-name="Grupo 392" clip-path="url(#clip-path)">
    <path id="Trazado_933" data-name="Trazado 933" d="M3.647,86.3a3.525,3.525,0,0,1-3.2-2.012,3.388,3.388,0,0,1,.323-3.862c.961-1.171,2.09-2.206,3.164-3.282,3.639-3.648,7.3-7.278,10.922-10.939a4.291,4.291,0,0,1,3.434-1.591,3.5,3.5,0,0,1,3.119,2.048,3.406,3.406,0,0,1-.344,3.712A16.539,16.539,0,0,1,19.4,72.162Q12.9,78.681,6.376,85.183A3.6,3.6,0,0,1,3.647,86.3m.184-2.273a3.457,3.457,0,0,0,.846-.5c3.02-3,6.019-6.015,9.031-9.019.269-.269.249-.46-.013-.7A12.562,12.562,0,0,1,12.613,72.7c-.339-.406-.566-.327-.9.017C9.764,74.7,7.8,76.653,5.838,78.616c-1.02,1.022-2.047,2.036-3.053,3.071a1.36,1.36,0,0,0-.337,1.57c.217.5.641.728,1.383.766M19.455,68.33a1.355,1.355,0,0,0-.813-1.346,1.33,1.33,0,0,0-1.552.379c-.977.954-1.925,1.936-2.895,2.9-.232.23-.284.423-.03.668.422.409.839.823,1.244,1.249.215.226.386.243.614.01.98-1,1.986-1.983,2.946-3a3.52,3.52,0,0,0,.485-.854" transform="translate(0 -57.228)" fill="#fff"/>
    <path id="Trazado_934" data-name="Trazado 934" d="M174.846,138.08a1.186,1.186,0,0,1-1.284-.906,13.628,13.628,0,0,1-.427-1.416.885.885,0,0,0-.723-.756,12.214,12.214,0,0,1-1.521-.473,1.235,1.235,0,0,1-.857-1.331,1.293,1.293,0,0,1,.887-1.263,8.881,8.881,0,0,1,1.367-.388.991.991,0,0,0,.878-.885,8.846,8.846,0,0,1,.4-1.305,1.239,1.239,0,0,1,1.3-.9,1.253,1.253,0,0,1,1.312.892c.192.514.286,1.066.495,1.572a1.094,1.094,0,0,0,.553.538c.49.2,1.02.293,1.524.458a1.33,1.33,0,0,1,.965,1.266,1.268,1.268,0,0,1-.909,1.358c-.534.2-1.094.325-1.618.542a1.029,1.029,0,0,0-.511.509c-.2.49-.3,1.018-.476,1.52a1.224,1.224,0,0,1-1.355.97" transform="translate(-150.625 -113.793)" fill="#fff"/>
    <path id="Trazado_935" data-name="Trazado 935" d="M47.073,9.653A1.3,1.3,0,0,1,45.617,8.62c-.141-.452-.283-.907-.379-1.369a.8.8,0,0,0-.686-.651,11.773,11.773,0,0,1-1.52-.461,1.278,1.278,0,0,1-.854-1.395,1.28,1.28,0,0,1,.953-1.212,4.738,4.738,0,0,1,.975-.3c.826-.082,1.148-.575,1.283-1.324a4.574,4.574,0,0,1,.4-1.177,1.368,1.368,0,0,1,2.452.092,14.426,14.426,0,0,1,.51,1.625.767.767,0,0,0,.626.641c.406.093.8.231,1.2.348.858.25,1.215.664,1.226,1.421.009.683-.363,1.147-1.172,1.418a10.163,10.163,0,0,1-1.15.317.815.815,0,0,0-.745.721A8.789,8.789,0,0,1,48.3,8.778a1.162,1.162,0,0,1-1.23.875" transform="translate(-37.36 -0.007)" fill="#fff"/>
    <path id="Trazado_936" data-name="Trazado 936" d="M185.222,8.426a1.107,1.107,0,0,1-1.138-.819,6.886,6.886,0,0,1-.351-1.2.727.727,0,0,0-.67-.652,8.669,8.669,0,0,1-1.036-.308c-.736-.235-.958-.518-.96-1.213,0-.711.2-.969.95-1.218a1.552,1.552,0,0,1,.434-.134c1-.011,1.345-.634,1.486-1.506.108-.667.372-1.261,1.157-1.362A1.122,1.122,0,0,1,186.349.7a3.574,3.574,0,0,1,.306.973,1.262,1.262,0,0,0,1.177,1.157,6.044,6.044,0,0,1,.819.235,1.148,1.148,0,0,1,.822,1.17,1.158,1.158,0,0,1-.882,1.189,1.661,1.661,0,0,1-.436.126c-1.057.069-1.455.724-1.633,1.682-.164.881-.569,1.2-1.3,1.2" transform="translate(-160.4 0)" fill="#fff"/>
  </g>
</svg>
