<svg xmlns="http://www.w3.org/2000/svg" width="21.991" height="21.991" viewBox="0 0 21.991 21.991">
  <g id="INSTAGRAM_BLACK" transform="translate(-190.675 -72.299)">
    <path id="Trazado_27" data-name="Trazado 27" d="M207.492,76.226a1.289,1.289,0,1,0,1.29,1.289A1.29,1.29,0,0,0,207.492,76.226Z" fill="#fff"/>
    <path id="Trazado_28" data-name="Trazado 28" d="M201.761,77.879a5.416,5.416,0,1,0,5.416,5.415A5.422,5.422,0,0,0,201.761,77.879Zm0,8.884a3.469,3.469,0,1,1,3.469-3.469A3.473,3.473,0,0,1,201.761,86.763Z" fill="#fff"/>
    <path id="Trazado_29" data-name="Trazado 29" d="M206.06,94.29h-8.779a6.613,6.613,0,0,1-6.606-6.606V78.9a6.613,6.613,0,0,1,6.606-6.6h8.779a6.613,6.613,0,0,1,6.606,6.6v8.78A6.614,6.614,0,0,1,206.06,94.29Zm-8.779-19.922a4.542,4.542,0,0,0-4.537,4.536v8.78a4.542,4.542,0,0,0,4.537,4.537h8.779a4.542,4.542,0,0,0,4.537-4.537V78.9a4.542,4.542,0,0,0-4.537-4.536Z" fill="#fff"/>
  </g>
</svg>
