<svg xmlns="http://www.w3.org/2000/svg" width="25.912" height="28.24" viewBox="0 0 25.912 28.24">
  <g id="interactivity-icon" transform="translate(0)">
    <path id="Trazado_931" data-name="Trazado 931" d="M7.079,59.909v-.721q0-6.33,0-12.66a3.522,3.522,0,1,1,7.031-.072c.044,2.155.01,4.312.011,6.468,0,.2,0,.4,0,.623,1.963.393,3.873.78,5.784,1.157a8.458,8.458,0,0,1,3.416,1.177A5.787,5.787,0,0,1,25.9,60.754c.018,1.4.023,2.8,0,4.2-.016.978-.749,1.53-1.558,1.2a1.183,1.183,0,0,1-.724-1.243c.007-1.235.027-2.47-.01-3.7a5.766,5.766,0,0,0-.256-1.73,3.391,3.391,0,0,0-2.694-2.267q-3.812-.773-7.627-1.538c-.923-.186-1.207-.522-1.209-1.473,0-2.506.009-5.013-.014-7.519a2.812,2.812,0,0,0-.266-1.1.982.982,0,0,0-1.065-.529,1.049,1.049,0,0,0-.956.723,2.84,2.84,0,0,0-.124.92q-.011,7.491-.005,14.982c0,.166,0,.332,0,.5a1.162,1.162,0,0,1-.656,1.179A1.182,1.182,0,0,1,7.4,63.136c-.95-.756-1.894-1.518-2.852-2.263a2.224,2.224,0,0,0-.756-.43,1.082,1.082,0,0,0-1.252.481,1.035,1.035,0,0,0,.037,1.331c.5.562,1.07,1.063,1.573,1.623a2.062,2.062,0,0,1,.469.839.962.962,0,0,1-.529,1.111,1,1,0,0,1-1.236-.077A20.247,20.247,0,0,1,.667,63.572a3.41,3.41,0,0,1,.4-4.488,3.5,3.5,0,0,1,4.456-.373c.491.352.959.735,1.559,1.2" transform="translate(0 -38.014)" fill="#161615"/>
    <path id="Trazado_932" data-name="Trazado 932" d="M21.584,8.62A8.4,8.4,0,0,1,28.746.064a8.276,8.276,0,0,1,9.18,6.931,7.979,7.979,0,0,1-.6,4.531,1.131,1.131,0,0,1-1.514.7,1.112,1.112,0,0,1-.613-1.509,6.436,6.436,0,0,0,.374-3.784A5.92,5.92,0,1,0,24.333,10.51c.334.816.107,1.456-.542,1.72a1.13,1.13,0,0,1-1.519-.693,7.453,7.453,0,0,1-.688-2.918" transform="translate(-19.196 0.001)" fill="#161615"/>
  </g>
</svg>
