<svg xmlns="http://www.w3.org/2000/svg" width="20.043" height="19.997" viewBox="0 0 20.043 19.997">
  <g id="LINKEDIN_BLACK" transform="translate(-279.14 -131.966)">
    <path id="Trazado_31" data-name="Trazado 31" d="M279.47,138.6h4.159v13.358H279.47Zm2.08-6.639a2.408,2.408,0,1,1-2.41,2.406,2.408,2.408,0,0,1,2.41-2.406" fill="#fff"/>
    <path id="Trazado_32" data-name="Trazado 32" d="M286.234,138.6h3.983v1.827h.055a4.366,4.366,0,0,1,3.932-2.158c4.2,0,4.979,2.765,4.979,6.363v7.326h-4.149v-6.494c0-1.551-.031-3.543-2.158-3.543-2.162,0-2.492,1.687-2.492,3.429v6.608h-4.15Z" fill="#fff"/>
  </g>
</svg>
