<svg xmlns="http://www.w3.org/2000/svg" width="50.764" height="46.551" viewBox="0 0 50.764 46.551"><path d="M25.391,46.549c-3.5,0-6.992.006-10.488,0a10.49,10.49,0,0,1-3.713-.621A10.014,10.014,0,0,1,7.6,43.648,25.36,25.36,0,0,1,1,32.541a24.893,24.893,0,0,1-.911-9.072A25.064,25.064,0,0,1,8.579,6.444,24.64,24.64,0,0,1,20.418.485,25.317,25.317,0,0,1,28.66.216,24.652,24.652,0,0,1,39.632,4.389a25.276,25.276,0,0,1,9.247,11.465,24.8,24.8,0,0,1,1.8,7.5,25.227,25.227,0,0,1-3.019,14.406,23.39,23.39,0,0,1-5.382,6.7,8.527,8.527,0,0,1-4.631,1.953,22.064,22.064,0,0,1-2.436.127c-3.272.014-6.543.006-9.815.006m-.012-2.093q5.35,0,10.7,0a7.02,7.02,0,0,0,4.755-1.527,21.324,21.324,0,0,0,2.974-3.119,22.922,22.922,0,0,0,4.822-15.926A22.9,22.9,0,0,0,46.2,14.97,23.136,23.136,0,0,0,36.181,4.738,22.7,22.7,0,0,0,24.338,2.113,22.7,22.7,0,0,0,17,3.649,23.51,23.51,0,0,0,2.236,22.887a23.9,23.9,0,0,0,.4,7.671A23.3,23.3,0,0,0,8.812,41.914a8.051,8.051,0,0,0,6.08,2.546c3.5-.015,6.991,0,10.487,0" transform="translate(0 0)" fill="#bbb"/><path d="M119.186,136.489c.283-6.614,3.218-11.645,9.046-14.914a15.65,15.65,0,0,1,6.68-1.92,16.469,16.469,0,0,1,11.555,3.494,16.654,16.654,0,0,1,6.414,10.93c.068.43.1.867.133,1.3a1.062,1.062,0,0,1-.922,1.116,1.024,1.024,0,0,1-1.107-.787c-.09-.437-.1-.89-.175-1.331a14.625,14.625,0,0,0-8.357-11.271,14.206,14.206,0,0,0-7.606-1.362A14.759,14.759,0,0,0,122.02,132.01a14.481,14.481,0,0,0,3.155,14.484c.269.312.576.593.861.891a1.039,1.039,0,1,1-1.456,1.479,16.838,16.838,0,0,1-5.164-9.769c-.138-.847-.155-1.714-.231-2.607" transform="translate(-110.739 -111.133)" fill="#bbb"/><path d="M298.615,303.091a4.226,4.226,0,0,1,8.352-.888,4.471,4.471,0,0,1,.048,1.229.414.414,0,0,0,.3.5q5.217,2.28,10.425,4.578a1.046,1.046,0,1,1-.777,1.924q-2.512-1.1-5.021-2.2c-1.833-.8-3.668-1.6-5.5-2.406a.34.34,0,0,0-.473.09,4.211,4.211,0,0,1-7.213-1.809,8.2,8.2,0,0,1-.141-1.012m6.355.016a2.128,2.128,0,0,0-2.124-2.141,2.132,2.132,0,0,0-.015,4.264,2.128,2.128,0,0,0,2.139-2.123" transform="translate(-277.452 -277.716)" fill="#bbb"/></svg>