<svg xmlns="http://www.w3.org/2000/svg" width="47.602" height="45.545" viewBox="0 0 47.602 45.545"><g transform="translate(0)"><path d="M22.881.009C27.421.01,31.961.027,36.5,0a8.711,8.711,0,0,1,8.025,4.7c1.159,1.987,1.1,4.176.995,6.363-.026.512-.422.7-.9.691s-.835-.188-.868-.721c-.056-.89-.079-1.782-.142-2.672a6.874,6.874,0,0,0-6.941-6.471q-13.843-.005-27.685,0a6.891,6.891,0,0,0-7.038,7q-.021,7.813,0,15.626a6.91,6.91,0,0,0,5.344,7.051,5.564,5.564,0,0,0,1.468.171c4.54.013,9.08.007,13.619.007,1.086,0,1.4.311,1.4,1.419q.006,3.5,0,6.994c0,1.119-.239,1.383-1.342,1.39q-4.093.023-8.186-.005a1.714,1.714,0,0,1-.984-.22A.989.989,0,0,1,13,40.47a1.446,1.446,0,0,1,.631-.726,1.461,1.461,0,0,1,.725-.072c2.233,0,4.465-.017,6.7.007.61.007.829-.195.813-.818q-.056-2.231,0-4.464c.015-.6-.2-.762-.776-.759q-5.73.03-11.461,0a19.9,19.9,0,0,1-2.3-.144A8.759,8.759,0,0,1,.321,26.94a16.7,16.7,0,0,1-.289-2.948C0,18.908-.022,13.823.032,8.739A8.6,8.6,0,0,1,4.89.956,8.744,8.744,0,0,1,9.336,0c4.515.024,9.03.009,13.545.009" transform="translate(0)" fill="#bbb"/><path d="M186.98,121.268c0-2.727-.048-5.455.013-8.181a6.787,6.787,0,0,1,6.61-6.593c2.179-.075,4.363-.035,6.545-.024a6.843,6.843,0,0,1,6.3,5.182,14.315,14.315,0,0,1,.276,2.651c.026,4.859.015,9.718.011,14.577a6.979,6.979,0,0,1-5.507,7.159,4.374,4.374,0,0,1-1.1.11c-2.108.01-4.215,0-6.323,0A6.766,6.766,0,0,1,187,129.672c-.01-.2-.022-.4-.022-.595q0-3.9,0-7.809h.005m1.871.061h0c0,2.6-.03,5.207.008,7.81a4.826,4.826,0,0,0,4.77,5.046c2.127.1,4.265.062,6.4,0a5.05,5.05,0,0,0,2-.484,4.9,4.9,0,0,0,2.792-4.846c-.008-4.835,0-9.669-.008-14.5a16.433,16.433,0,0,0-.108-1.852,4.859,4.859,0,0,0-4.106-4.029c-2.323-.125-4.657-.107-6.985-.062a4.551,4.551,0,0,0-1.978.529,5,5,0,0,0-2.781,4.729q0,3.83,0,7.661" transform="translate(-159.144 -90.611)" fill="#bbb"/></g></svg>