<svg xmlns="http://www.w3.org/2000/svg" width="26.877" height="20.128" viewBox="0 0 26.877 20.128">
  <g id="see-more-icon-white" transform="translate(-1663.452 -6127.904)">
    <path id="Trazado_730" data-name="Trazado 730" d="M856.948,401.462c5.981.391,9.912,3.837,12.539,9.095a2.143,2.143,0,0,1-.02,1.974,15.935,15.935,0,0,1-7.472,7.814,13.659,13.659,0,0,1-14.149-1.688,17.156,17.156,0,0,1-4.758-6.131,2.153,2.153,0,0,1-.033-1.932,16.006,16.006,0,0,1,7.58-7.916A13.963,13.963,0,0,1,856.948,401.462Zm-.181,2.191a11.835,11.835,0,0,0-5.164.995,13.853,13.853,0,0,0-6.347,6.412.937.937,0,0,0,.008.976,14.888,14.888,0,0,0,3.517,4.542,11.066,11.066,0,0,0,11.252,2.186c3.454-1.162,5.727-3.723,7.324-6.921a.8.8,0,0,0,.007-.625C865.129,406.879,861.847,404,856.767,403.653Z" transform="translate(820.611 5726.444)" fill="#fff"/>
    <path id="Trazado_731" data-name="Trazado 731" d="M934.505,450.683a5.567,5.567,0,1,1-5.585,5.549A5.551,5.551,0,0,1,934.505,450.683Zm3.367,5.55a3.384,3.384,0,1,0-3.406,3.4A3.385,3.385,0,0,0,937.873,456.233Z" transform="translate(742.4 5681.721)" fill="#fff"/>
  </g>
</svg>
