<svg xmlns="http://www.w3.org/2000/svg" width="21.991" height="18.101" viewBox="0 0 21.991 18.101">
  <g id="TWITTER_BLACK" transform="translate(-101.005 -460.329)">
    <path id="Twitter" d="M264.437,74.469a9.031,9.031,0,0,1-2.224.634c.358-.06.883-.707,1.094-.969a4.088,4.088,0,0,0,.738-1.347c.019-.038.033-.086,0-.115a.123.123,0,0,0-.118.01,11.361,11.361,0,0,1-2.637,1.008.176.176,0,0,1-.182-.048,2.158,2.158,0,0,0-.23-.235,4.651,4.651,0,0,0-1.277-.783,4.453,4.453,0,0,0-1.959-.316,4.7,4.7,0,0,0-1.859.525,4.8,4.8,0,0,0-1.5,1.225,4.593,4.593,0,0,0-.9,1.794,4.854,4.854,0,0,0-.048,1.893c.014.106,0,.12-.091.106a14.08,14.08,0,0,1-9.06-4.612c-.106-.121-.164-.121-.25.009a4.594,4.594,0,0,0,.783,5.428c.178.169.361.337.557.491a4.616,4.616,0,0,1-1.748-.491c-.106-.067-.159-.028-.169.092a2.814,2.814,0,0,0,.029.519,4.647,4.647,0,0,0,2.864,3.7,2.743,2.743,0,0,0,.581.178,5.174,5.174,0,0,1-1.714.053c-.125-.024-.173.039-.125.159a4.821,4.821,0,0,0,3.6,3.017c.163.029.327.029.491.067-.01.015-.02.015-.029.03a5.71,5.71,0,0,1-2.461,1.3,8.807,8.807,0,0,1-3.737.478c-.2-.03-.243-.027-.3,0s-.007.082.058.134c.254.168.514.318.778.462a12.381,12.381,0,0,0,2.5,1,13.3,13.3,0,0,0,12.917-3.021c2.647-2.63,3.575-6.256,3.575-9.888,0-.142.168-.221.268-.3a8.737,8.737,0,0,0,1.758-1.828.557.557,0,0,0,.116-.351v-.019C264.528,74.411,264.527,74.428,264.437,74.469Z" transform="translate(-141.532 388.03)" fill="#fff"/>
  </g>
</svg>
