<svg xmlns="http://www.w3.org/2000/svg" width="21.002" height="23.345" viewBox="0 0 21.002 23.345">
  <path id="user-icon" d="M48.842,33.749c-4.015-3.783-2.789-8.294-.572-10.51a7.06,7.06,0,0,1,9.541-.375c3.265,2.856,3.208,6.7-.169,10.981A10.534,10.534,0,0,1,63.584,41.5a5.192,5.192,0,0,1,.1,2.055,1.5,1.5,0,0,1-1.043.977,1.545,1.545,0,0,1-1.115-.9c-.277-.774-.222-1.661-.446-2.461a8.158,8.158,0,0,0-8.662-5.888A8.279,8.279,0,0,0,45.074,42.9a2.087,2.087,0,0,1-.3,1.218c-.269.274-.975.51-1.2.351a1.93,1.93,0,0,1-.821-1.338,10.128,10.128,0,0,1,3.564-7.588,30.824,30.824,0,0,1,2.527-1.8m4.461-.883a4.636,4.636,0,1,0-4.721-4.588A4.644,4.644,0,0,0,53.3,32.866" transform="translate(-42.751 -21.187)" fill="#fff"/>
</svg>
