<?xml version="1.0" encoding="UTF-8"?>
<svg id="Capa_1" data-name="Capa 1" xmlns="http://www.w3.org/2000/svg" xmlns:xlink="http://www.w3.org/1999/xlink" viewBox="0 0 24 24">
  <defs>
    <style>
      .cls-1 {
        stroke: #021c1e;
      }

      .cls-1, .cls-2 {
        fill: none;
      }

      .cls-3 {
        fill: #021c1e;
      }

      .cls-3, .cls-2 {
        stroke-width: 0px;
      }

      .cls-4 {
        clip-path: url(#clippath);
      }
    </style>
    <clipPath id="clippath">
      <rect class="cls-2" x="7.21" y="7.73" width="11.17" height="8.54"/>
    </clipPath>
  </defs>
  <g id="error-alert">
    <g id="Elipse_23" data-name="Elipse 23">
      <circle class="cls-2" cx="12" cy="12" r="12"/>
      <circle class="cls-1" cx="12" cy="12" r="11.5"/>
    </g>
  </g>
  <g class="cls-4">
    <g id="Grupo_183" data-name="Grupo 183">
      <path id="Trazado_240" data-name="Trazado 240" class="cls-3" d="M10.82,16.27c-.25,0-.49-.1-.67-.28-.89-.88-1.77-1.76-2.64-2.64-.38-.37-.39-.98-.02-1.36.13-.13.3-.23.48-.27.34-.08.69.03.93.28.59.6,1.19,1.19,1.79,1.79.14.14.15.14.29,0,1.9-1.9,3.81-3.81,5.71-5.71.22-.24.55-.37.88-.34.41.06.74.38.82.79.05.35-.08.7-.34.93-2.14,2.14-4.28,4.27-6.41,6.41-.14.16-.32.29-.53.35-.09.02-.19.03-.27.05"/>
    </g>
  </g>
</svg>