<svg id="Grupo_184" data-name="Grupo 184" xmlns="http://www.w3.org/2000/svg" xmlns:xlink="http://www.w3.org/1999/xlink" width="8.188" height="6.261" viewBox="0 0 8.188 6.261">
  <defs>
    <clipPath id="clip-path">
      <rect id="Rectángulo_214" data-name="Rectángulo 214" width="8.188" height="6.261" fill="#021c1e"/>
    </clipPath>
  </defs>
  <g id="Grupo_183" data-name="Grupo 183" clip-path="url(#clip-path)">
    <path id="Trazado_240" data-name="Trazado 240" d="M2.64,6.261a.678.678,0,0,1-.49-.208C1.5,5.409.854,4.765.213,4.116A.706.706,0,0,1,.548,2.921a.7.7,0,0,1,.68.206q.653.655,1.309,1.308c.1.1.112.1.216,0Q4.845,2.344,6.936.251A.777.777,0,0,1,7.578,0a.717.717,0,0,1,.6.578.783.783,0,0,1-.248.685q-2.356,2.347-4.7,4.7a.846.846,0,0,1-.386.259c-.067.016-.136.023-.2.034" transform="translate(0 0)" fill="#021c1e"/>
  </g>
</svg>
